<?xml version="1.0" encoding="UTF-8" standalone="no" ?>
<!DOCTYPE svg PUBLIC "-//W3C//DTD SVG 1.1//EN" "http://www.w3.org/Graphics/SVG/1.1/DTD/svg11.dtd">
<svg xmlns="http://www.w3.org/2000/svg" xmlns:xlink="http://www.w3.org/1999/xlink" version="1.1" width="1080" height="1080" viewBox="-34.29 -8.57 1080 1080" xml:space="preserve">
<desc>Created with Fabric.js 5.2.4</desc>
<defs>
</defs>
<rect x="0" y="0" width="100%" height="100%" fill="transparent"></rect>
<g transform="matrix(1 0 0 1 540 540)" id="8d79dd32-61af-4a11-a91c-2c058cd25219"  >
<rect style="stroke: none; stroke-width: 1; stroke-dasharray: none; stroke-linecap: butt; stroke-dashoffset: 0; stroke-linejoin: miter; stroke-miterlimit: 4; fill: rgb(255,255,255); fill-rule: nonzero; opacity: 1; visibility: hidden;" vector-effect="non-scaling-stroke"  x="-540" y="-540" rx="0" ry="0" width="1080" height="1080" />
</g>
<g transform="matrix(1 0 0 1 540 540)" id="f3c2c7ec-b82c-46ab-bd98-eef06fd694b8"  >
</g>
<g transform="matrix(1 0 0 1 1133.69 515.73)"  >
<g style="opacity: 0.41;" vector-effect="non-scaling-stroke"   >
		<g transform="matrix(1 0 0 1 -175.32 -233.7)"  >
<path style="stroke: none; stroke-width: 1; stroke-dasharray: none; stroke-linecap: butt; stroke-dashoffset: 0; stroke-linejoin: miter; stroke-miterlimit: 4; fill: rgb(255,250,114); fill-rule: nonzero; opacity: 1;" vector-effect="non-scaling-stroke"  transform=" translate(-1010.73, -96.5)" d="M 734.567 34.372 C 705.875 96.096 711.301 134.79399999999998 750.842 150.466 C 810.155 173.97400000000002 951.189 183.377 1010.141 234.372 C 1069.091 285.366 1248.838 245.94400000000002 1279.579 158.42200000000003 C 1310.32 70.9 1365.669 -64 1073.808 -64 C 879.232 -64 766.154 -31.21 734.568 34.372 L 734.567 34.372 z" stroke-linecap="round" />
</g>
		<g transform="matrix(2.8 0 1.62 2.8 0 0)"  >
<path style="stroke: none; stroke-width: 1; stroke-dasharray: none; stroke-linecap: butt; stroke-dashoffset: 0; stroke-linejoin: miter; stroke-miterlimit: 4; fill: rgb(175,230,255); fill-rule: nonzero; opacity: 1;" vector-effect="non-scaling-stroke"  transform=" translate(-1010.73, -96.5)" d="M 734.567 34.372 C 705.875 96.096 711.301 134.79399999999998 750.842 150.466 C 810.155 173.97400000000002 951.189 183.377 1010.141 234.372 C 1069.091 285.366 1248.838 245.94400000000002 1279.579 158.42200000000003 C 1310.32 70.9 1365.669 -64 1073.808 -64 C 879.232 -64 766.154 -31.21 734.568 34.372 L 734.567 34.372 z" stroke-linecap="round" />
</g>
		<g transform="matrix(2.65 0 1.38 2.65 -24.49 -19.47)"  >
<path style="stroke: none; stroke-width: 1; stroke-dasharray: none; stroke-linecap: butt; stroke-dashoffset: 0; stroke-linejoin: miter; stroke-miterlimit: 4; fill: rgb(160,217,255); fill-rule: nonzero; opacity: 1;" vector-effect="non-scaling-stroke"  transform=" translate(-1010.73, -96.5)" d="M 734.567 34.372 C 705.875 96.096 711.301 134.79399999999998 750.842 150.466 C 810.155 173.97400000000002 951.189 183.377 1010.141 234.372 C 1069.091 285.366 1248.838 245.94400000000002 1279.579 158.42200000000003 C 1310.32 70.9 1365.669 -64 1073.808 -64 C 879.232 -64 766.154 -31.21 734.568 34.372 L 734.567 34.372 z" stroke-linecap="round" />
</g>
		<g transform="matrix(2.5 0 1.17 2.5 -46.72 -38.95)"  >
<path style="stroke: none; stroke-width: 1; stroke-dasharray: none; stroke-linecap: butt; stroke-dashoffset: 0; stroke-linejoin: miter; stroke-miterlimit: 4; fill: rgb(144,204,255); fill-rule: nonzero; opacity: 1;" vector-effect="non-scaling-stroke"  transform=" translate(-1010.73, -96.5)" d="M 734.567 34.372 C 705.875 96.096 711.301 134.79399999999998 750.842 150.466 C 810.155 173.97400000000002 951.189 183.377 1010.141 234.372 C 1069.091 285.366 1248.838 245.94400000000002 1279.579 158.42200000000003 C 1310.32 70.9 1365.669 -64 1073.808 -64 C 879.232 -64 766.154 -31.21 734.568 34.372 L 734.567 34.372 z" stroke-linecap="round" />
</g>
		<g transform="matrix(2.35 0 0.97 2.35 -66.9 -58.42)"  >
<path style="stroke: none; stroke-width: 1; stroke-dasharray: none; stroke-linecap: butt; stroke-dashoffset: 0; stroke-linejoin: miter; stroke-miterlimit: 4; fill: rgb(128,191,255); fill-rule: nonzero; opacity: 1;" vector-effect="non-scaling-stroke"  transform=" translate(-1010.73, -96.5)" d="M 734.567 34.372 C 705.875 96.096 711.301 134.79399999999998 750.842 150.466 C 810.155 173.97400000000002 951.189 183.377 1010.141 234.372 C 1069.091 285.366 1248.838 245.94400000000002 1279.579 158.42200000000003 C 1310.32 70.9 1365.669 -64 1073.808 -64 C 879.232 -64 766.154 -31.21 734.568 34.372 L 734.567 34.372 z" stroke-linecap="round" />
</g>
		<g transform="matrix(2.2 0 0.8 2.2 -85.17 -77.9)"  >
<path style="stroke: none; stroke-width: 1; stroke-dasharray: none; stroke-linecap: butt; stroke-dashoffset: 0; stroke-linejoin: miter; stroke-miterlimit: 4; fill: rgb(112,178,255); fill-rule: nonzero; opacity: 1;" vector-effect="non-scaling-stroke"  transform=" translate(-1010.73, -96.5)" d="M 734.567 34.372 C 705.875 96.096 711.301 134.79399999999998 750.842 150.466 C 810.155 173.97400000000002 951.189 183.377 1010.141 234.372 C 1069.091 285.366 1248.838 245.94400000000002 1279.579 158.42200000000003 C 1310.32 70.9 1365.669 -64 1073.808 -64 C 879.232 -64 766.154 -31.21 734.568 34.372 L 734.567 34.372 z" stroke-linecap="round" />
</g>
		<g transform="matrix(2.05 0 0.65 2.05 -101.68 -97.37)"  >
<path style="stroke: none; stroke-width: 1; stroke-dasharray: none; stroke-linecap: butt; stroke-dashoffset: 0; stroke-linejoin: miter; stroke-miterlimit: 4; fill: rgb(97,166,255); fill-rule: nonzero; opacity: 1;" vector-effect="non-scaling-stroke"  transform=" translate(-1010.73, -96.5)" d="M 734.567 34.372 C 705.875 96.096 711.301 134.79399999999998 750.842 150.466 C 810.155 173.97400000000002 951.189 183.377 1010.141 234.372 C 1069.091 285.366 1248.838 245.94400000000002 1279.579 158.42200000000003 C 1310.32 70.9 1365.669 -64 1073.808 -64 C 879.232 -64 766.154 -31.21 734.568 34.372 L 734.567 34.372 z" stroke-linecap="round" />
</g>
		<g transform="matrix(1.9 0 0.51 1.9 -116.53 -116.85)"  >
<path style="stroke: none; stroke-width: 1; stroke-dasharray: none; stroke-linecap: butt; stroke-dashoffset: 0; stroke-linejoin: miter; stroke-miterlimit: 4; fill: rgb(81,153,255); fill-rule: nonzero; opacity: 1;" vector-effect="non-scaling-stroke"  transform=" translate(-1010.73, -96.5)" d="M 734.567 34.372 C 705.875 96.096 711.301 134.79399999999998 750.842 150.466 C 810.155 173.97400000000002 951.189 183.377 1010.141 234.372 C 1069.091 285.366 1248.838 245.94400000000002 1279.579 158.42200000000003 C 1310.32 70.9 1365.669 -64 1073.808 -64 C 879.232 -64 766.154 -31.21 734.568 34.372 L 734.567 34.372 z" stroke-linecap="round" />
</g>
		<g transform="matrix(1.75 0 0.39 1.75 -129.83 -136.32)"  >
<path style="stroke: none; stroke-width: 1; stroke-dasharray: none; stroke-linecap: butt; stroke-dashoffset: 0; stroke-linejoin: miter; stroke-miterlimit: 4; fill: rgb(65,140,255); fill-rule: nonzero; opacity: 1;" vector-effect="non-scaling-stroke"  transform=" translate(-1010.73, -96.5)" d="M 734.567 34.372 C 705.875 96.096 711.301 134.79399999999998 750.842 150.466 C 810.155 173.97400000000002 951.189 183.377 1010.141 234.372 C 1069.091 285.366 1248.838 245.94400000000002 1279.579 158.42200000000003 C 1310.32 70.9 1365.669 -64 1073.808 -64 C 879.232 -64 766.154 -31.21 734.568 34.372 L 734.567 34.372 z" stroke-linecap="round" />
</g>
		<g transform="matrix(1.6 0 0.28 1.6 -141.66 -155.8)"  >
<path style="stroke: none; stroke-width: 1; stroke-dasharray: none; stroke-linecap: butt; stroke-dashoffset: 0; stroke-linejoin: miter; stroke-miterlimit: 4; fill: rgb(49,127,255); fill-rule: nonzero; opacity: 1;" vector-effect="non-scaling-stroke"  transform=" translate(-1010.73, -96.5)" d="M 734.567 34.372 C 705.875 96.096 711.301 134.79399999999998 750.842 150.466 C 810.155 173.97400000000002 951.189 183.377 1010.141 234.372 C 1069.091 285.366 1248.838 245.94400000000002 1279.579 158.42200000000003 C 1310.32 70.9 1365.669 -64 1073.808 -64 C 879.232 -64 766.154 -31.21 734.568 34.372 L 734.567 34.372 z" stroke-linecap="round" />
</g>
		<g transform="matrix(1.45 0 0.19 1.45 -152.07 -175.27)"  >
<path style="stroke: none; stroke-width: 1; stroke-dasharray: none; stroke-linecap: butt; stroke-dashoffset: 0; stroke-linejoin: miter; stroke-miterlimit: 4; fill: rgb(33,114,255); fill-rule: nonzero; opacity: 1;" vector-effect="non-scaling-stroke"  transform=" translate(-1010.73, -96.5)" d="M 734.567 34.372 C 705.875 96.096 711.301 134.79399999999998 750.842 150.466 C 810.155 173.97400000000002 951.189 183.377 1010.141 234.372 C 1069.091 285.366 1248.838 245.94400000000002 1279.579 158.42200000000003 C 1310.32 70.9 1365.669 -64 1073.808 -64 C 879.232 -64 766.154 -31.21 734.568 34.372 L 734.567 34.372 z" stroke-linecap="round" />
</g>
		<g transform="matrix(1.3 0 0.11 1.3 -161.13 -194.75)"  >
<path style="stroke: none; stroke-width: 1; stroke-dasharray: none; stroke-linecap: butt; stroke-dashoffset: 0; stroke-linejoin: miter; stroke-miterlimit: 4; fill: rgb(18,101,255); fill-rule: nonzero; opacity: 1;" vector-effect="non-scaling-stroke"  transform=" translate(-1010.73, -96.5)" d="M 734.567 34.372 C 705.875 96.096 711.301 134.79399999999998 750.842 150.466 C 810.155 173.97400000000002 951.189 183.377 1010.141 234.372 C 1069.091 285.366 1248.838 245.94400000000002 1279.579 158.42200000000003 C 1310.32 70.9 1365.669 -64 1073.808 -64 C 879.232 -64 766.154 -31.21 734.568 34.372 L 734.567 34.372 z" stroke-linecap="round" />
</g>
		<g transform="matrix(1.15 0 0.05 1.15 -168.87 -214.22)"  >
<path style="stroke: none; stroke-width: 1; stroke-dasharray: none; stroke-linecap: butt; stroke-dashoffset: 0; stroke-linejoin: miter; stroke-miterlimit: 4; fill: rgb(2,88,255); fill-rule: nonzero; opacity: 1;" vector-effect="non-scaling-stroke"  transform=" translate(-1010.73, -96.5)" d="M 734.567 34.372 C 705.875 96.096 711.301 134.79399999999998 750.842 150.466 C 810.155 173.97400000000002 951.189 183.377 1010.141 234.372 C 1069.091 285.366 1248.838 245.94400000000002 1279.579 158.42200000000003 C 1310.32 70.9 1365.669 -64 1073.808 -64 C 879.232 -64 766.154 -31.21 734.568 34.372 L 734.567 34.372 z" stroke-linecap="round" />
</g>
</g>
</g>
</svg>